<svg id="visual" viewBox="0 0 900 600" width="900" height="600" xmlns="http://www.w3.org/2000/svg" xmlns:xlink="http://www.w3.org/1999/xlink" version="1.1"><path d="M0 37L82 37L82 61L164 61L164 55L245 55L245 25L327 25L327 55L409 55L409 19L491 19L491 49L573 49L573 37L655 37L655 37L736 37L736 49L818 49L818 43L900 43L900 49L900 0L900 0L818 0L818 0L736 0L736 0L655 0L655 0L573 0L573 0L491 0L491 0L409 0L409 0L327 0L327 0L245 0L245 0L164 0L164 0L82 0L82 0L0 0Z" fill="#b0235f"></path><path d="M0 85L82 85L82 85L164 85L164 91L245 91L245 43L327 43L327 79L409 79L409 55L491 55L491 97L573 97L573 61L655 61L655 55L736 55L736 85L818 85L818 85L900 85L900 73L900 47L900 41L818 41L818 47L736 47L736 35L655 35L655 35L573 35L573 47L491 47L491 17L409 17L409 53L327 53L327 23L245 23L245 53L164 53L164 59L82 59L82 35L0 35Z" fill="#ba2d60"></path><path d="M0 217L82 217L82 187L164 187L164 175L245 175L245 157L327 157L327 163L409 163L409 235L491 235L491 235L573 235L573 277L655 277L655 211L736 211L736 199L818 199L818 211L900 211L900 247L900 71L900 83L818 83L818 83L736 83L736 53L655 53L655 59L573 59L573 95L491 95L491 53L409 53L409 77L327 77L327 41L245 41L245 89L164 89L164 83L82 83L82 83L0 83Z" fill="#c53762"></path><path d="M0 355L82 355L82 367L164 367L164 325L245 325L245 337L327 337L327 295L409 295L409 349L491 349L491 361L573 361L573 367L655 367L655 271L736 271L736 295L818 295L818 325L900 325L900 367L900 245L900 209L818 209L818 197L736 197L736 209L655 209L655 275L573 275L573 233L491 233L491 233L409 233L409 161L327 161L327 155L245 155L245 173L164 173L164 185L82 185L82 215L0 215Z" fill="#ce4063"></path><path d="M0 409L82 409L82 433L164 433L164 439L245 439L245 403L327 403L327 397L409 397L409 415L491 415L491 445L573 445L573 433L655 433L655 391L736 391L736 403L818 403L818 403L900 403L900 403L900 365L900 323L818 323L818 293L736 293L736 269L655 269L655 365L573 365L573 359L491 359L491 347L409 347L409 293L327 293L327 335L245 335L245 323L164 323L164 365L82 365L82 353L0 353Z" fill="#d84a64"></path><path d="M0 505L82 505L82 481L164 481L164 481L245 481L245 481L327 481L327 451L409 451L409 451L491 451L491 517L573 517L573 511L655 511L655 469L736 469L736 439L818 439L818 463L900 463L900 499L900 401L900 401L818 401L818 401L736 401L736 389L655 389L655 431L573 431L573 443L491 443L491 413L409 413L409 395L327 395L327 401L245 401L245 437L164 437L164 431L82 431L82 407L0 407Z" fill="#e15465"></path><path d="M0 535L82 535L82 529L164 529L164 511L245 511L245 523L327 523L327 469L409 469L409 499L491 499L491 535L573 535L573 535L655 535L655 517L736 517L736 493L818 493L818 487L900 487L900 523L900 497L900 461L818 461L818 437L736 437L736 467L655 467L655 509L573 509L573 515L491 515L491 449L409 449L409 449L327 449L327 479L245 479L245 479L164 479L164 479L82 479L82 503L0 503Z" fill="#ea5e66"></path><path d="M0 577L82 577L82 583L164 583L164 583L245 583L245 565L327 565L327 547L409 547L409 559L491 559L491 577L573 577L573 571L655 571L655 559L736 559L736 553L818 553L818 559L900 559L900 577L900 521L900 485L818 485L818 491L736 491L736 515L655 515L655 533L573 533L573 533L491 533L491 497L409 497L409 467L327 467L327 521L245 521L245 509L164 509L164 527L82 527L82 533L0 533Z" fill="#f26867"></path><path d="M0 601L82 601L82 601L164 601L164 601L245 601L245 601L327 601L327 601L409 601L409 601L491 601L491 601L573 601L573 601L655 601L655 601L736 601L736 601L818 601L818 601L900 601L900 601L900 575L900 557L818 557L818 551L736 551L736 557L655 557L655 569L573 569L573 575L491 575L491 557L409 557L409 545L327 545L327 563L245 563L245 581L164 581L164 581L82 581L82 575L0 575Z" fill="#fa7268"></path></svg>